<svg width="1200" height="1200" viewBox="0 0 1200 1200" fill="none" xmlns="http://www.w3.org/2000/svg">
<path fill-rule="evenodd" clip-rule="evenodd" d="M96.2652 81H813.741C982.359 81 1119.05 217.691 1119.05 386.309V813.741C1119.05 982.359 982.359 1119.05 813.741 1119.05H96.2652C87.8343 1119.05 80.9998 1112.22 80.9998 1103.78V96.2655C80.9998 87.8346 87.8343 81 96.2652 81ZM353.87 405.391C323.308 405.391 298.532 380.615 298.532 350.053C298.532 319.492 323.308 294.716 353.87 294.716H729.781C829.383 294.716 907.242 377.494 907.242 475.993C907.242 524.434 888.411 569.073 857.424 601.933C888.411 634.794 907.242 679.432 907.242 727.873C907.242 826.372 829.383 909.15 729.781 909.15H353.87C323.308 909.15 298.532 884.375 298.532 853.813C298.532 823.251 323.308 798.476 353.87 798.476H729.781C765.073 798.476 796.568 768.484 796.568 727.873C796.568 687.263 765.073 657.271 729.781 657.271H353.87C323.308 657.271 298.532 632.495 298.532 601.933C298.532 571.371 323.308 546.596 353.87 546.596H729.781C765.073 546.596 796.568 516.604 796.568 475.993C796.568 435.383 765.073 405.391 729.781 405.391H353.87Z" fill="#53C5A5"/>
</svg>
