<svg width="41" height="40" viewBox="0 0 41 40" fill="none" xmlns="http://www.w3.org/2000/svg">
<rect x="0.82959" width="40" height="40" rx="20" fill="#E6E7E9"/>
<path d="M28.5952 22.1638L21.3956 29.3634C21.3213 29.4378 21.233 29.4968 21.1359 29.537C21.0388 29.5773 20.9347 29.598 20.8296 29.598C20.7245 29.598 20.6204 29.5773 20.5233 29.537C20.4261 29.4968 20.3379 29.4378 20.2636 29.3634L13.064 22.1638C12.9139 22.0137 12.8296 21.8101 12.8296 21.5978C12.8296 21.3855 12.9139 21.182 13.064 21.0319C13.2141 20.8817 13.4177 20.7974 13.63 20.7974C13.8423 20.7974 14.0459 20.8817 14.196 21.0319L20.0296 26.8665V11.1984C20.0296 10.9862 20.1139 10.7828 20.2639 10.6327C20.414 10.4827 20.6174 10.3984 20.8296 10.3984C21.0418 10.3984 21.2452 10.4827 21.3952 10.6327C21.5453 10.7828 21.6296 10.9862 21.6296 11.1984V26.8665L27.4632 21.0319C27.6133 20.8817 27.8169 20.7974 28.0292 20.7974C28.2415 20.7974 28.4451 20.8817 28.5952 21.0319C28.7453 21.182 28.8296 21.3855 28.8296 21.5978C28.8296 21.8101 28.7453 22.0137 28.5952 22.1638Z" fill="#393F44"/>
</svg>
