<svg width="110" height="32" viewBox="0 0 110 32" fill="none" xmlns="http://www.w3.org/2000/svg">
<path fill-rule="evenodd" clip-rule="evenodd" d="M13.1319 0.0383209C10.1354 0 7.17851 0 4.2216 0C3.50364 5.91179 2.70087 11.813 1.8981 17.7142C1.25056 22.4743 0.603029 27.2344 0 32H8.94983C10.3219 21.3666 13.1319 0.0383209 13.1319 0.0383209ZM19.9261 0C25.6412 0 31.3562 0 37.1109 0.03957C37.1504 10.7194 37.1504 21.3597 37.1504 32C34.1091 32 31.0677 32 27.9868 31.9604C27.9473 22.1144 27.9473 12.3079 27.9473 2.50139C26.9117 4.0759 25.9472 5.65598 24.997 7.24461C23.5582 9.65 22.127 12.0599 20.7033 14.4742C20.6301 14.5983 20.6043 14.7976 20.646 14.9348C21.0705 16.3345 21.502 17.732 21.9334 19.1296L21.9335 19.1299L21.9341 19.1316C22.1936 19.9722 22.4531 20.8128 22.7111 21.6538C23.5308 24.3261 24.3466 26.9996 25.159 29.674C25.3199 30.2037 25.4727 30.7359 25.6255 31.2681L25.6256 31.2686L25.6257 31.269L25.6259 31.2695C25.6958 31.5131 25.7657 31.7567 25.8364 32C22.4855 32 19.1346 32 15.744 31.9656C15.4799 31.0701 15.2471 30.2112 15.0325 29.3477C14.7057 28.0325 14.3798 26.7171 14.0538 25.4017C13.2227 22.0475 12.3916 18.6934 11.5459 15.343C11.4599 15.0021 11.5237 14.7494 11.6707 14.4824C11.7623 14.3158 11.8617 14.1534 11.9611 13.9911L11.9611 13.9911L11.9611 13.9911L11.9611 13.991C12.0412 13.8603 12.1212 13.7295 12.1972 13.5965C12.4925 13.0801 12.7864 12.5629 13.0804 12.0458L13.0807 12.0452L13.0808 12.045L13.0809 12.0448C13.4928 11.3201 13.9047 10.5955 14.3202 9.87289C14.7606 9.10688 15.2042 8.34265 15.6478 7.57841L15.6481 7.57787L15.6485 7.57725L15.6486 7.5771L15.6489 7.5766L15.649 7.5763L15.6491 7.57621C16.0326 6.91545 16.4161 6.25469 16.7976 5.59277C17.5452 4.29583 18.2921 2.99844 19.028 1.69486C19.244 1.31219 19.4464 0.921849 19.6488 0.531508C19.7408 0.354099 19.8328 0.176689 19.9261 0ZM86.7968 0C90.7388 0 94.6808 0 98.6403 0.0316949C98.9481 0.126376 99.2357 0.209817 99.5292 0.248963C101.189 0.470367 102.783 0.899924 104.272 1.68729C105.788 2.48974 106.864 3.66535 107.404 5.31401C107.927 6.90843 107.948 8.52327 107.656 10.1584C107.244 12.4609 105.754 13.8435 103.732 14.7743C103.599 14.8353 103.464 14.8913 103.353 14.9375L103.352 14.9378C103.307 14.9564 103.266 14.9734 103.231 14.9886C103.471 15.0981 103.713 15.2031 103.956 15.3081C104.49 15.5389 105.024 15.7699 105.531 16.0505C107.373 17.0707 108.578 18.5685 108.842 20.7225C108.846 20.7565 108.893 20.7853 108.941 20.8141C108.963 20.8275 108.985 20.8409 109.003 20.8549C109.003 22.0106 109.003 23.1662 108.967 24.3633C108.871 24.6749 108.806 24.9445 108.75 25.2156C108.446 26.6704 107.87 27.9995 106.816 29.0661C105.849 30.0451 104.65 30.6876 103.34 31.0594C102.57 31.2782 101.782 31.4353 100.994 31.5925C100.598 31.6715 100.203 31.7504 99.8091 31.8372C99.7626 31.8474 99.7239 31.8934 99.6853 31.9394C99.6673 31.9608 99.6494 31.9822 99.6306 32H99.6294C95.3782 32 91.1271 32 86.8364 31.9604C86.7968 21.2806 86.7968 10.6403 86.7968 0ZM95.5777 20.1372V25.4202C95.8927 25.3814 96.2025 25.35 96.5077 25.3191L96.5082 25.319L96.5085 25.319C97.1852 25.2505 97.8394 25.1842 98.4772 25.044C99.5434 24.8096 100.333 24.1796 100.478 23.0085C100.551 22.414 100.583 21.8058 100.549 21.2086C100.489 20.1638 100.013 19.3352 99.065 18.8388C98.1426 18.3555 97.1567 18.3814 96.153 18.4078C95.9618 18.4128 95.7699 18.4179 95.5777 18.4194V20.1372ZM95.5777 10.5119V12.3651C95.7969 12.3513 96.0109 12.3426 96.2208 12.3341L96.2209 12.3341C96.6801 12.3154 97.1196 12.2976 97.551 12.2292C98.3614 12.1008 99.045 11.723 99.3347 10.8869C99.6135 10.0823 99.6803 9.26121 99.4926 8.41534C99.3544 7.79282 99.0339 7.30578 98.493 7.0096C97.5939 6.51725 96.6054 6.46793 95.5777 6.51374V10.5119ZM68.0528 24.7168C68.0528 16.4498 68.0528 8.22488 68.0132 0H58.934C58.934 10.6403 58.934 21.2806 58.9736 31.9604C64.9815 32 70.9499 32 76.8983 31.9656C77.1796 29.5436 77.481 27.1559 77.7888 24.7168H68.0528ZM47.6649 0C47.7045 8.22488 47.7045 16.4498 47.7045 24.7168H57.4405C57.1327 27.1559 56.8314 29.5436 56.55 31.9656C50.6016 32 44.6332 32 38.6253 31.9604C38.5858 21.2806 38.5858 10.6403 38.5858 0H47.6649Z" fill="#111111"/>
</svg>
