<svg width="1024" height="258" viewBox="0 0 1024 258" fill="none" xmlns="http://www.w3.org/2000/svg">
<path fill-rule="evenodd" clip-rule="evenodd" d="M3.78209 0H181.54C223.316 0 257.182 33.866 257.182 75.6418V181.54C257.182 223.316 223.316 257.182 181.54 257.182H3.78209C1.6933 257.182 0 255.489 0 253.4V3.78209C0 1.6933 1.6933 0 3.78209 0ZM67.6049 80.3694C60.033 80.3694 53.8948 74.2312 53.8948 66.6594C53.8948 59.0875 60.033 52.9493 67.6049 52.9493H160.739C185.416 52.9493 204.706 73.4579 204.706 97.8616C204.706 109.863 200.04 120.923 192.363 129.064C200.04 137.205 204.706 148.265 204.706 160.266C204.706 184.67 185.416 205.178 160.739 205.178H67.6049C60.033 205.178 53.8948 199.04 53.8948 191.468C53.8948 183.896 60.033 177.758 67.6049 177.758H160.739C169.483 177.758 177.286 170.328 177.286 160.266C177.286 150.205 169.483 142.774 160.739 142.774H67.6049C60.033 142.774 53.8948 136.636 53.8948 129.064C53.8948 121.492 60.033 115.354 67.6049 115.354H160.739C169.483 115.354 177.286 107.923 177.286 97.8616C177.286 87.8002 169.483 80.3694 160.739 80.3694H67.6049Z" fill="white"/>
<path d="M958.05 209.906C935.673 209.906 919.126 204.922 908.41 194.954C897.852 184.986 892.572 170.429 892.572 151.284C892.572 132.297 897.93 117.819 908.646 107.851C919.362 97.7244 935.83 92.6612 958.05 92.6612C980.427 92.6612 996.974 97.7244 1007.69 107.851C1018.56 117.819 1024 132.297 1024 151.284C1024 170.429 1018.64 184.986 1007.93 194.954C997.21 204.922 980.585 209.906 958.05 209.906ZM958.05 177.391C965.299 177.391 970.499 175.334 973.651 171.22C976.96 167.106 978.615 160.461 978.615 151.284C978.615 142.265 976.96 135.698 973.651 131.585C970.499 127.313 965.299 125.176 958.05 125.176C950.958 125.176 945.837 127.313 942.685 131.585C939.533 135.698 937.958 142.265 937.958 151.284C937.958 160.461 939.533 167.106 942.685 171.22C945.837 175.334 950.958 177.391 958.05 177.391Z" fill="white"/>
<path d="M803.276 209.906C792.659 209.906 783.388 208.162 775.465 204.675C767.7 201.03 761.599 195.165 757.162 187.081C752.883 178.997 750.744 168.218 750.744 154.745C750.744 140.955 753.2 129.463 758.113 120.269C763.025 111.076 769.602 104.181 777.842 99.584C786.082 94.8287 795.036 92.4511 804.702 92.4511C809.932 92.4511 815.082 93.0059 820.153 94.1154C825.382 95.225 829.899 96.8101 833.702 98.8707V47.2761H878.39V207.528H839.644L837.505 198.731C833.068 202.218 828.076 204.992 822.53 207.053C817.142 208.955 810.724 209.906 803.276 209.906ZM816.112 177.57C822.926 177.57 828.789 175.272 833.702 170.675V130.731C829.265 126.768 823.401 124.787 816.112 124.787C810.249 124.787 805.495 127.402 801.85 132.633C798.205 137.864 796.383 145.314 796.383 154.983C796.383 164.493 797.967 170.675 801.137 173.528C804.306 176.223 809.298 177.57 816.112 177.57Z" fill="white"/>
<path d="M613.643 208.015V95.0446H655.326L656.511 103.625C660.774 100.765 666.379 98.2223 673.326 95.9979C680.431 93.7734 688.01 92.6612 696.062 92.6612C710.114 92.6612 720.377 96.1568 726.851 103.148C733.324 110.139 736.561 120.944 736.561 135.561V208.015H692.036V140.09C692.036 135.005 690.931 131.351 688.72 129.126C686.51 126.902 682.641 125.79 677.115 125.79C673.8 125.79 670.326 126.584 666.695 128.173C663.221 129.762 660.379 131.669 658.168 133.893V208.015H613.643Z" fill="white"/>
<path d="M514.442 209.906C507.337 209.906 500.705 208.64 494.547 206.109C488.547 203.577 483.731 199.621 480.099 194.242C476.467 188.862 474.651 182.058 474.651 173.831C474.651 161.964 478.599 152.787 486.494 146.3C494.389 139.654 506.31 136.331 522.258 136.331H551.391V134.195C551.391 129.765 549.575 126.521 545.943 124.464C542.312 122.408 535.917 121.379 526.759 121.379C513.811 121.379 501.021 123.357 488.389 127.313V100.493C494.073 98.2782 501.179 96.4586 509.705 95.0346C518.232 93.4523 526.916 92.6612 535.759 92.6612C553.602 92.6612 567.734 96.3004 578.155 103.579C588.577 110.857 593.787 122.408 593.787 138.23V207.533H554.944L552.812 198.514C548.865 201.995 543.733 204.764 537.417 206.821C531.259 208.878 523.601 209.906 514.442 209.906ZM529.601 183.799C534.654 183.799 538.917 182.929 542.391 181.188C546.022 179.448 549.022 177.312 551.391 174.78V160.777H529.838C520.048 160.777 515.153 164.654 515.153 172.407C515.153 180.001 519.969 183.799 529.601 183.799Z" fill="white"/>
<path d="M325.259 208.015V54.8403H409.373C424.896 54.8403 436.698 58.4873 444.776 65.7814C452.855 73.0754 456.895 83.5407 456.895 97.1774C456.895 105.106 455.39 111.765 452.38 117.157C449.529 122.548 445.727 126.829 440.975 130.001C447.469 132.538 452.618 136.264 456.419 141.179C460.38 145.936 462.36 153.072 462.36 162.586C462.36 177.015 457.924 188.194 449.053 196.123C440.183 204.051 427.589 208.015 411.274 208.015H325.259ZM368.266 115.967H397.255C408.185 115.967 413.65 111.052 413.65 101.221C413.65 96.3053 412.303 92.579 409.61 90.0419C407.076 87.5049 402.561 86.2364 396.066 86.2364H368.266V115.967ZM368.266 176.857H399.155C405.175 176.857 409.61 175.588 412.462 173.051C415.313 170.514 416.739 166.312 416.739 160.445C416.739 155.53 415.313 151.803 412.462 149.266C409.61 146.729 404.858 145.461 398.205 145.461H368.266V176.857Z" fill="white"/>
</svg>
