<svg width="209" height="53" viewBox="0 0 209 53" fill="none" xmlns="http://www.w3.org/2000/svg">
<path d="M56.16 42V11.088H73.152C76.288 11.088 78.672 11.824 80.304 13.296C81.936 14.768 82.752 16.88 82.752 19.632C82.752 21.232 82.448 22.576 81.84 23.664C81.264 24.752 80.496 25.616 79.536 26.256C80.848 26.768 81.888 27.52 82.656 28.512C83.456 29.472 83.856 30.912 83.856 32.832C83.856 35.744 82.96 38 81.168 39.6C79.376 41.2 76.832 42 73.536 42H56.16ZM64.848 23.424H70.704C72.912 23.424 74.016 22.432 74.016 20.448C74.016 19.456 73.744 18.704 73.2 18.192C72.688 17.68 71.776 17.424 70.464 17.424H64.848V23.424ZM64.848 35.712H71.088C72.304 35.712 73.2 35.456 73.776 34.944C74.352 34.432 74.64 33.584 74.64 32.4C74.64 31.408 74.352 30.656 73.776 30.144C73.2 29.632 72.24 29.376 70.896 29.376H64.848V35.712ZM94.3421 42.48C92.9021 42.48 91.5581 42.224 90.3101 41.712C89.0941 41.2 88.1181 40.4 87.3821 39.312C86.6461 38.224 86.2781 36.848 86.2781 35.184C86.2781 32.784 87.0781 30.928 88.6781 29.616C90.2781 28.272 92.6941 27.6 95.9261 27.6H101.83V27.168C101.83 26.272 101.462 25.616 100.726 25.2C99.9901 24.784 98.6941 24.576 96.8381 24.576C94.2141 24.576 91.6221 24.976 89.0621 25.776V20.352C90.2141 19.904 91.6541 19.536 93.3821 19.248C95.1101 18.928 96.8701 18.768 98.6621 18.768C102.278 18.768 105.142 19.504 107.254 20.976C109.366 22.448 110.422 24.784 110.422 27.984V42H102.55L102.118 40.176C101.318 40.88 100.278 41.44 98.9981 41.856C97.7501 42.272 96.1981 42.48 94.3421 42.48ZM97.4141 37.2C98.4381 37.2 99.3021 37.024 100.006 36.672C100.742 36.32 101.35 35.888 101.83 35.376V32.544H97.4621C95.4781 32.544 94.4861 33.328 94.4861 34.896C94.4861 36.432 95.4621 37.2 97.4141 37.2ZM114.519 42V19.248H122.967L123.207 20.976C124.071 20.4 125.207 19.888 126.615 19.44C128.055 18.992 129.591 18.768 131.223 18.768C134.071 18.768 136.151 19.472 137.463 20.88C138.775 22.288 139.431 24.464 139.431 27.408V42H130.407V28.32C130.407 27.296 130.183 26.56 129.735 26.112C129.287 25.664 128.503 25.44 127.383 25.44C126.711 25.44 126.007 25.6 125.271 25.92C124.567 26.24 123.991 26.624 123.543 27.072V42H114.519ZM152.855 42.48C150.711 42.48 148.839 42.128 147.239 41.424C145.671 40.688 144.439 39.504 143.543 37.872C142.679 36.24 142.247 34.064 142.247 31.344C142.247 28.56 142.743 26.24 143.735 24.384C144.727 22.528 146.055 21.136 147.719 20.208C149.383 19.248 151.191 18.768 153.143 18.768C154.199 18.768 155.239 18.88 156.263 19.104C157.319 19.328 158.231 19.648 158.999 20.064V9.648H168.023V42H160.199L159.767 40.224C158.871 40.928 157.863 41.488 156.743 41.904C155.655 42.288 154.359 42.48 152.855 42.48ZM155.447 35.952C156.823 35.952 158.007 35.488 158.999 34.56V26.496C158.103 25.696 156.919 25.296 155.447 25.296C154.263 25.296 153.303 25.824 152.567 26.88C151.831 27.936 151.463 29.44 151.463 31.392C151.463 33.312 151.783 34.56 152.423 35.136C153.063 35.68 154.071 35.952 155.447 35.952ZM184.23 42.48C179.686 42.48 176.326 41.472 174.15 39.456C172.006 37.44 170.934 34.496 170.934 30.624C170.934 26.784 172.022 23.856 174.198 21.84C176.374 19.792 179.718 18.768 184.23 18.768C188.774 18.768 192.134 19.792 194.31 21.84C196.518 23.856 197.622 26.784 197.622 30.624C197.622 34.496 196.534 37.44 194.358 39.456C192.182 41.472 188.806 42.48 184.23 42.48ZM184.23 35.904C185.702 35.904 186.758 35.488 187.398 34.656C188.07 33.824 188.406 32.48 188.406 30.624C188.406 28.8 188.07 27.472 187.398 26.64C186.758 25.776 185.702 25.344 184.23 25.344C182.79 25.344 181.75 25.776 181.11 26.64C180.47 27.472 180.15 28.8 180.15 30.624C180.15 32.48 180.47 33.824 181.11 34.656C181.75 35.488 182.79 35.904 184.23 35.904Z" fill="white"/>
<path d="M36.6161 26.9663C36.5073 26.8575 36.3985 26.8031 36.2897 26.6943C36.3441 26.6943 36.3441 26.6399 36.3985 26.6399C37.6499 25.5517 38.6292 24.0827 39.1188 22.4505C39.6085 20.8183 39.6085 19.0773 39.1188 17.4451C38.6292 15.8673 37.7043 14.4527 36.3985 13.2558C35.0383 12.1132 33.5149 11.4059 31.7739 11.1339C31.7195 11.1339 31.7195 11.1339 31.6651 11.1339H11.7521C10.7184 11.1339 9.8479 12.0044 9.8479 13.0381C9.8479 14.0719 10.7184 14.9424 11.7521 14.9424H31.1754C32.3724 15.1056 33.5149 15.6497 34.331 16.5202C35.0927 17.3363 35.5824 18.5332 35.6368 19.839C35.6368 21.0359 35.2015 22.2329 34.3854 23.1578C33.6237 24.0283 32.4268 24.6268 31.2298 24.79H11.9154C10.8816 24.79 10.0111 25.6605 10.0111 26.6943C10.0111 27.2928 10.2287 27.728 10.6096 28.0544C10.9904 28.3809 11.4257 28.5985 11.9154 28.5985H31.3387C32.5356 28.7617 33.6781 29.3058 34.4943 30.1763C35.3104 30.9924 35.7456 32.1894 35.7456 33.4951C35.7456 34.6921 35.3104 35.8891 34.4943 36.814C33.7326 37.6845 32.5356 38.283 31.3387 38.4462H12.133C11.0993 38.4462 10.2287 39.3167 10.2287 40.3504C10.2287 41.3842 11.0993 42.2547 12.133 42.2547H31.9371C31.9915 42.2547 31.9915 42.2547 32.0459 42.2547C33.6781 42.037 35.256 41.3297 36.6161 40.2416C37.8675 39.1535 38.8468 37.6845 39.3365 36.0523C39.8261 34.4201 39.8261 32.679 39.3365 31.0468C38.7924 29.5234 37.8675 28.1089 36.6161 26.9663Z" fill="white"/>
<path d="M49.7824 17.0642C49.728 10.481 46.518 5.58434 40.4788 2.86399C36.0174 0.850934 31.6649 0.796528 31.6104 0.796528C26.8226 0.796528 17.9543 0.796528 2.66594 0.687714H0.816104C0.380849 0.687714 0 1.06856 0 1.50382V52.0479C0 52.4831 0.380849 52.864 0.816104 52.864H1.90424C2.06746 52.864 2.77476 52.864 3.80849 52.864C7.34494 52.864 15.6692 52.9184 22.1436 52.9184C26.605 52.9184 30.1415 52.9184 31.1752 52.864C31.2296 52.864 35.691 52.7552 40.37 50.9053C46.6812 48.2938 50 43.506 50 37.086L49.7824 17.0642ZM46.1371 37.086C46.2459 41.8738 43.852 45.3014 38.9554 47.3145C35.1469 48.8923 31.1752 49.0555 31.1752 49.0555C31.1752 49.0555 31.1208 49.0555 31.0664 49.0555C29.1621 49.1099 17.4646 49.1099 9.73885 49.0555C7.29053 49.0555 5.22307 49.0555 3.75408 49.0555V4.55061C8.65071 4.60502 21.7628 4.60502 31.5016 4.60502C31.556 4.60502 35.2013 4.71383 38.7922 6.34604C43.4168 8.4135 45.7563 12.0588 45.8107 17.1186L46.1371 37.086Z" fill="white"/>
</svg>
