<svg width="185" height="35" viewBox="0 0 185 35" fill="none" xmlns="http://www.w3.org/2000/svg">
<path d="M21.9041 17.268C21.8395 17.2034 21.7749 17.1711 21.7104 17.1065C21.7426 17.1065 21.7426 17.0742 21.7749 17.0742C22.5176 16.4284 23.0989 15.5565 23.3895 14.5878C23.6801 13.619 23.6801 12.5857 23.3895 11.6169C23.0989 10.6805 22.5499 9.84088 21.7749 9.13047C20.9676 8.45234 20.0635 8.03255 19.0301 7.87109C18.9978 7.87109 18.9979 7.87109 18.9656 7.87109H7.14681C6.53327 7.87109 6.0166 8.38776 6.0166 9.0013C6.0166 9.61484 6.53327 10.1315 7.14681 10.1315H18.6749C19.3854 10.2284 20.0635 10.5513 20.5479 11.068C20.9999 11.5523 21.2906 12.2628 21.3229 13.0378C21.3229 13.7482 21.0645 14.4586 20.5801 15.0076C20.1281 15.5242 19.4176 15.8794 18.7072 15.9763H7.24368C6.63014 15.9763 6.11348 16.493 6.11348 17.1065C6.11348 17.4617 6.24264 17.7201 6.46868 17.9138C6.69473 18.1076 6.95306 18.2367 7.24368 18.2367H18.7718C19.4822 18.3336 20.1603 18.6565 20.6447 19.1732C21.1291 19.6576 21.3874 20.368 21.3874 21.143C21.3874 21.8534 21.1291 22.5638 20.6447 23.1128C20.1926 23.6294 19.4822 23.9846 18.7718 24.0815H7.37285C6.75931 24.0815 6.24264 24.5982 6.24264 25.2117C6.24264 25.8253 6.75931 26.3419 7.37285 26.3419H19.127C19.1593 26.3419 19.1593 26.3419 19.1916 26.3419C20.1603 26.2128 21.0968 25.793 21.9041 25.1471C22.6468 24.5013 23.2281 23.6294 23.5187 22.6607C23.8093 21.6919 23.8093 20.6586 23.5187 19.6898C23.1958 18.7857 22.6468 17.9461 21.9041 17.268Z" fill="#40B494"/>
<path d="M29.7188 11.3917C29.6865 7.48437 27.7812 4.57812 24.1969 2.96354C21.549 1.76875 18.9656 1.73646 18.9333 1.73646C16.0917 1.73646 10.8281 1.73646 1.75417 1.67188H0.65625C0.397917 1.67188 0.171875 1.89792 0.171875 2.15625V32.1552C0.171875 32.4135 0.397917 32.6396 0.65625 32.6396H1.30208C1.39896 32.6396 1.81875 32.6396 2.43229 32.6396C4.53125 32.6396 9.47188 32.6719 13.3146 32.6719C15.9625 32.6719 18.0615 32.6719 18.675 32.6396C18.7073 32.6396 21.3552 32.575 24.1323 31.4771C27.8781 29.9271 29.8479 27.0854 29.8479 23.275L29.7188 11.3917ZM27.5552 23.275C27.6198 26.1167 26.199 28.151 23.2927 29.3458C21.0323 30.2823 18.675 30.3792 18.675 30.3792C18.675 30.3792 18.6427 30.3792 18.6104 30.3792C17.4802 30.4115 10.5375 30.4115 5.95208 30.3792C4.49896 30.3792 3.27188 30.3792 2.4 30.3792V3.96458C5.30625 3.99688 13.0885 3.99688 18.8687 3.99688C18.901 3.99688 21.0646 4.06146 23.1958 5.03021C25.9406 6.25729 27.3292 8.42083 27.3615 11.424L27.5552 23.275Z" fill="#40B494"/>
<path d="M35.8 31.3359V5.57594H49.96C52.5733 5.57594 54.56 6.18927 55.92 7.41594C57.28 8.6426 57.96 10.4026 57.96 12.6959C57.96 14.0293 57.7067 15.1493 57.2 16.0559C56.72 16.9626 56.08 17.6826 55.28 18.2159C56.3733 18.6426 57.24 19.2693 57.88 20.0959C58.5467 20.8959 58.88 22.0959 58.88 23.6959C58.88 26.1226 58.1333 28.0026 56.64 29.3359C55.1467 30.6693 53.0267 31.3359 50.28 31.3359H35.8ZM43.04 15.8559H47.92C49.76 15.8559 50.68 15.0293 50.68 13.3759C50.68 12.5493 50.4533 11.9226 50 11.4959C49.5733 11.0693 48.8133 10.8559 47.72 10.8559H43.04V15.8559ZM43.04 26.0959H48.24C49.2533 26.0959 50 25.8826 50.48 25.4559C50.96 25.0293 51.2 24.3226 51.2 23.3359C51.2 22.5093 50.96 21.8826 50.48 21.4559C50 21.0293 49.2 20.8159 48.08 20.8159H43.04V26.0959ZM67.6184 31.7359C66.4184 31.7359 65.2984 31.5226 64.2584 31.0959C63.2451 30.6693 62.4318 30.0026 61.8184 29.0959C61.2051 28.1893 60.8984 27.0426 60.8984 25.6559C60.8984 23.6559 61.5651 22.1093 62.8984 21.0159C64.2318 19.8959 66.2451 19.3359 68.9384 19.3359H73.8584V18.9759C73.8584 18.2293 73.5518 17.6826 72.9384 17.3359C72.3251 16.9893 71.2451 16.8159 69.6984 16.8159C67.5118 16.8159 65.3518 17.1493 63.2184 17.8159V13.2959C64.1784 12.9226 65.3784 12.6159 66.8184 12.3759C68.2584 12.1093 69.7251 11.9759 71.2184 11.9759C74.2318 11.9759 76.6184 12.5893 78.3784 13.8159C80.1384 15.0426 81.0184 16.9893 81.0184 19.6559V31.3359H74.4584L74.0984 29.8159C73.4318 30.4026 72.5651 30.8693 71.4984 31.2159C70.4584 31.5626 69.1651 31.7359 67.6184 31.7359ZM70.1784 27.3359C71.0318 27.3359 71.7518 27.1893 72.3384 26.8959C72.9518 26.6026 73.4584 26.2426 73.8584 25.8159V23.4559H70.2184C68.5651 23.4559 67.7384 24.1093 67.7384 25.4159C67.7384 26.6959 68.5518 27.3359 70.1784 27.3359ZM84.4328 31.3359V12.3759H91.4728L91.6728 13.8159C92.3928 13.3359 93.3395 12.9093 94.5128 12.5359C95.7128 12.1626 96.9928 11.9759 98.3528 11.9759C100.726 11.9759 102.459 12.5626 103.553 13.7359C104.646 14.9093 105.193 16.7226 105.193 19.1759V31.3359H97.6728V19.9359C97.6728 19.0826 97.4861 18.4693 97.1128 18.0959C96.7395 17.7226 96.0861 17.5359 95.1528 17.5359C94.5928 17.5359 94.0061 17.6693 93.3928 17.9359C92.8061 18.2026 92.3261 18.5226 91.9528 18.8959V31.3359H84.4328ZM116.379 31.7359C114.592 31.7359 113.032 31.4426 111.699 30.8559C110.392 30.2426 109.366 29.2559 108.619 27.8959C107.899 26.5359 107.539 24.7226 107.539 22.4559C107.539 20.1359 107.952 18.2026 108.779 16.6559C109.606 15.1093 110.712 13.9493 112.099 13.1759C113.486 12.3759 114.992 11.9759 116.619 11.9759C117.499 11.9759 118.366 12.0693 119.219 12.2559C120.099 12.4426 120.859 12.7093 121.499 13.0559V4.37594H129.019V31.3359H122.499L122.139 29.8559C121.392 30.4426 120.552 30.9093 119.619 31.2559C118.712 31.5759 117.632 31.7359 116.379 31.7359ZM118.539 26.2959C119.686 26.2959 120.672 25.9093 121.499 25.1359V18.4159C120.752 17.7493 119.766 17.4159 118.539 17.4159C117.552 17.4159 116.752 17.8559 116.139 18.7359C115.526 19.6159 115.219 20.8693 115.219 22.4959C115.219 24.0959 115.486 25.1359 116.019 25.6159C116.552 26.0693 117.392 26.2959 118.539 26.2959ZM142.525 31.7359C138.739 31.7359 135.939 30.8959 134.125 29.2159C132.339 27.5359 131.445 25.0826 131.445 21.8559C131.445 18.6559 132.352 16.2159 134.165 14.5359C135.979 12.8293 138.765 11.9759 142.525 11.9759C146.312 11.9759 149.112 12.8293 150.925 14.5359C152.765 16.2159 153.685 18.6559 153.685 21.8559C153.685 25.0826 152.779 27.5359 150.965 29.2159C149.152 30.8959 146.339 31.7359 142.525 31.7359ZM142.525 26.2559C143.752 26.2559 144.632 25.9093 145.165 25.2159C145.725 24.5226 146.005 23.4026 146.005 21.8559C146.005 20.3359 145.725 19.2293 145.165 18.5359C144.632 17.8159 143.752 17.4559 142.525 17.4559C141.325 17.4559 140.459 17.8159 139.925 18.5359C139.392 19.2293 139.125 20.3359 139.125 21.8559C139.125 23.4026 139.392 24.5226 139.925 25.2159C140.459 25.9093 141.325 26.2559 142.525 26.2559Z" fill="#40B494"/>
</svg>
