<svg width="32" height="32" viewBox="0 0 32 32" fill="none" xmlns="http://www.w3.org/2000/svg">
<path d="M16 32C24.8366 32 32 24.8366 32 16C32 7.16344 24.8366 0 16 0C7.16344 0 0 7.16344 0 16C0 24.8366 7.16344 32 16 32Z" fill="#F0F0F0"/>
<path d="M32.0005 16.0003C32.0005 9.65689 28.309 4.17589 22.957 1.58789V30.4126C28.309 27.8246 32.0005 22.3436 32.0005 16.0003Z" fill="#D80027"/>
<path d="M0 16.0003C0 22.3436 3.69156 27.8246 9.0435 30.4126V1.58789C3.69156 4.17589 0 9.65689 0 16.0003Z" fill="#6DA544"/>
<path d="M11.8262 16.0007C11.8262 18.3059 13.6949 20.1746 16.0001 20.1746C18.3053 20.1746 20.174 18.3059 20.174 16.0007V14.6094H11.8262V16.0007Z" fill="#6DA544"/>
<path d="M21.5651 13.2175H17.3911C17.3911 12.4491 16.7682 11.8262 15.9998 11.8262C15.2314 11.8262 14.6085 12.4491 14.6085 13.2175H10.4346C10.4346 13.9859 11.1039 14.6088 11.8722 14.6088H11.8259C11.8259 15.3772 12.4488 16.0001 13.2172 16.0001C13.2172 16.7685 13.8401 17.3914 14.6085 17.3914H17.3911C18.1596 17.3914 18.7824 16.7685 18.7824 16.0001C19.5509 16.0001 20.1738 15.3772 20.1738 14.6088H20.1274C20.8958 14.6088 21.5651 13.9859 21.5651 13.2175Z" fill="#FF9811"/>
</svg>
