<svg width="16" height="16" viewBox="0 0 16 16" fill="none" xmlns="http://www.w3.org/2000/svg">
<rect width="16" height="16" rx="8" fill="#E6E7E9"/>
<path d="M8.82912 5.09802L11.5095 7.81144C11.5371 7.83944 11.559 7.87263 11.5739 7.9091C11.5888 7.94557 11.5963 7.98461 11.596 8.02399C11.5958 8.06336 11.5878 8.10231 11.5725 8.13859C11.5572 8.17488 11.5349 8.20779 11.5069 8.23545L8.79343 10.9158C8.73686 10.9717 8.6604 11.0028 8.58089 11.0023C8.50137 11.0018 8.4253 10.9698 8.36942 10.9132C8.31354 10.8566 8.28242 10.7802 8.28291 10.7006C8.28339 10.6211 8.31545 10.5451 8.37202 10.4892L10.571 8.31736L4.70194 8.28136C4.62247 8.28087 4.54644 8.24883 4.49059 8.19229C4.43474 8.13575 4.40364 8.05934 4.40413 7.97986C4.40461 7.90039 4.43665 7.82437 4.49319 7.76852C4.54973 7.71266 4.62615 7.68156 4.70562 7.68205L10.5747 7.71805L8.40251 5.51943C8.34663 5.46285 8.31551 5.3864 8.316 5.30688C8.31648 5.22736 8.34854 5.1513 8.40511 5.09542C8.46169 5.03953 8.53814 5.00841 8.61766 5.0089C8.69717 5.00939 8.77324 5.04145 8.82912 5.09802Z" fill="#393F44"/>
</svg>
