<svg width="32" height="32" viewBox="0 0 32 32" fill="none" xmlns="http://www.w3.org/2000/svg">
<rect x="0.5" y="0.5" width="31" height="31" rx="15.5" fill="white"/>
<rect x="0.5" y="0.5" width="31" height="31" rx="15.5" stroke="#D9D9D9"/>
<g opacity="0.8">
<g opacity="0.7">
<path fill-rule="evenodd" clip-rule="evenodd" d="M7.96967 19.9697C8.26256 19.6768 8.73744 19.6768 9.03033 19.9697L11.5 22.4393L13.9697 19.9697C14.2626 19.6768 14.7374 19.6768 15.0303 19.9697C15.3232 20.2626 15.3232 20.7374 15.0303 21.0303L12.0303 24.0303C11.7374 24.3232 11.2626 24.3232 10.9697 24.0303L7.96967 21.0303C7.67678 20.7374 7.67678 20.2626 7.96967 19.9697Z" fill="black"/>
<path fill-rule="evenodd" clip-rule="evenodd" d="M11.5 7.75C11.9142 7.75 12.25 8.08579 12.25 8.5V23.5C12.25 23.9142 11.9142 24.25 11.5 24.25C11.0858 24.25 10.75 23.9142 10.75 23.5V8.5C10.75 8.08579 11.0858 7.75 11.5 7.75Z" fill="black"/>
<path fill-rule="evenodd" clip-rule="evenodd" d="M19.9697 7.96967C20.2626 7.67678 20.7374 7.67678 21.0303 7.96967L24.0303 10.9697C24.3232 11.2626 24.3232 11.7374 24.0303 12.0303C23.7374 12.3232 23.2626 12.3232 22.9697 12.0303L20.5 9.56066L18.0303 12.0303C17.7374 12.3232 17.2626 12.3232 16.9697 12.0303C16.6768 11.7374 16.6768 11.2626 16.9697 10.9697L19.9697 7.96967Z" fill="black"/>
<path fill-rule="evenodd" clip-rule="evenodd" d="M20.5 7.75C20.9142 7.75 21.25 8.08579 21.25 8.5V23.5C21.25 23.9142 20.9142 24.25 20.5 24.25C20.0858 24.25 19.75 23.9142 19.75 23.5V8.5C19.75 8.08579 20.0858 7.75 20.5 7.75Z" fill="black"/>
</g>
</g>
</svg>
